HIERARCHY
ROOT Hips
{
	OFFSET 0.000000 0.000000 0.000000 
	CHANNELS 6 Xposition Yposition Zposition Zrotation Yrotation Xrotation
	JOINT LeftUpLeg
	{
		OFFSET 0.000000 0.000000 0.000000 
		CHANNELS 3 Zrotation Yrotation Xrotation
		JOINT LeftLeg
		{
			OFFSET 3.811170 -8.520760 0.839290 
			CHANNELS 3 Zrotation Yrotation Xrotation
			JOINT LeftFoot
			{
				OFFSET 2.562200 -7.039590 0.000000 
				CHANNELS 3 Zrotation Yrotation Xrotation
				JOINT LeftToeBase
				{
					OFFSET 0.157640 -0.433110 2.322550 
					CHANNELS 3 Zrotation Yrotation Xrotation
					End Site
					{
						OFFSET 0.000000 0.000000 0.000000 
					}
				}
			}
		}
	}
	JOINT RigthUpLeg
	{
		OFFSET 0.000000 0.000000 0.000000 
		CHANNELS 3 Zrotation Yrotation Xrotation
		JOINT RightLeg
		{
			OFFSET -3.848050 -8.780180 0.839290 
			CHANNELS 3 Zrotation Yrotation Xrotation
			JOINT RightFoot
			{
				OFFSET -2.568260 -7.056230 0.000000 
				CHANNELS 3 Zrotation Yrotation Xrotation
				JOINT RightToeBase
				{
					OFFSET -0.164730 -0.452590 2.363150 
					CHANNELS 3 Zrotation Yrotation Xrotation
					End Site
					{
						OFFSET 0.000000 0.000000 0.000000 
					}
				}
			}
		}
	}
	JOINT Spine
	{
		OFFSET 0.028270 2.035590 -0.193380 
		CHANNELS 3 Zrotation Yrotation Xrotation
		JOINT Spine1
		{
			OFFSET 0.056720 2.048850 -0.042750 
			CHANNELS 3 Zrotation Yrotation Xrotation
			JOINT Neck1
			{
				OFFSET -0.054170 1.746240 0.172020 
				CHANNELS 3 Zrotation Yrotation Xrotation
				JOINT Head
				{
					OFFSET 0.104070 1.761360 -0.123970 
					CHANNELS 3 Zrotation Yrotation Xrotation
					End Site
					{
						OFFSET 0.000000 0.000000 0.000000 
					}
				}
			}
			JOINT LeftArm
			{
				OFFSET 3.362410 1.200890 -0.311210 
				CHANNELS 3 Zrotation Yrotation Xrotation
				JOINT LeftForeArm
				{
					OFFSET 4.983000 -0.000000 -0.000000 
					CHANNELS 3 Zrotation Yrotation Xrotation
					JOINT LeftHand
					{
						OFFSET 3.483560 -0.000000 -0.000000 
						CHANNELS 3 Zrotation Yrotation Xrotation
						JOINT LeftHandIndex1
						{
							OFFSET 0.715260 -0.000000 -0.000000 
							CHANNELS 3 Zrotation Yrotation Xrotation
							End Site
							{
								OFFSET 0.000000 0.000000 0.000000 
							}
						}
					}
				}
			}
			JOINT RightArm
			{
				OFFSET -3.136600 1.374050 -0.404650 
				CHANNELS 3 Zrotation Yrotation Xrotation
				JOINT RightForeArm
				{
					OFFSET -5.241900 -0.000000 -0.000000 
					CHANNELS 3 Zrotation Yrotation Xrotation
					JOINT RightHand
					{
						OFFSET -3.444170 -0.000000 -0.000000 
						CHANNELS 3 Zrotation Yrotation Xrotation
						JOINT RightHandIndex1
						{
							OFFSET -0.622530 -0.000000 -0.000000 
							CHANNELS 3 Zrotation Yrotation Xrotation
							End Site
							{
								OFFSET 0.000000 0.000000 0.000000 
							}
						}
					}
				}
			}
		}
	}
}
MOTION
Frames: 18
Frame Time: 0.008333
-2.459858 14.507683 5.742495 170.276443 -42.221558 178.379807 -44.135584 -19.491086 -43.736451 -11.993204 -3.643855 23.653042 -26.583443 6.101176 -12.942492 -1.356042 -4.025836 -0.909176 -16.701628 -8.219320 20.020913 80.398838 -16.229651 -24.583634 33.969066 -3.318963 -92.356242 0.221380 0.818798 -3.170319 2.797159 7.161772 1.511174 -2.138351 1.139648 0.341277 -1.261402 2.447718 -0.733272 -0.876015 -4.164741 -1.086667 -61.313416 -4.977455 -3.711002 2.816273 -63.723534 1.342828 0.570190 -1.314560 -4.509222 2.846644 -4.706419 1.307899 125.428313 21.105649 49.386013 50.789804 82.756198 178.976706 -1.011985 -3.897375 2.066658 3.312306 2.686770 -1.602273
-2.541255 14.517689 5.701934 170.337723 -39.876362 178.507690 -42.725974 -19.080826 -49.669512 -14.607540 2.376917 24.311479 -20.043331 6.473730 -9.148967 -0.952059 0.341192 -2.412761 -16.903920 -8.609835 15.697518 77.576118 -11.126686 -23.908992 32.759511 4.545462 -90.512824 -3.043176 4.359568 -1.909344 2.770981 7.429841 -5.852457 2.987309 -4.065108 1.942748 3.130438 1.745780 3.192748 2.922179 -4.497638 4.511320 -64.641368 0.038885 -1.034201 -5.513606 -59.623530 -4.727191 -1.435487 4.931252 2.630281 2.779632 4.024648 0.077591 121.971190 21.403256 52.094823 53.540384 81.741834 179.484138 -2.458615 -4.743703 -4.949363 -3.584690 -0.793524 1.566129
-2.618448 14.527208 5.658350 170.375656 -37.557163 178.634201 -43.051911 -11.365473 -42.038300 -5.525185 -2.098329 23.834082 -15.747818 7.129985 -11.918410 -1.406139 -2.491589 2.907723 -14.833098 -9.097822 19.363654 76.104606 -10.773642 -21.233224 33.110146 2.473794 -96.306602 1.694326 1.764053 -2.377705 -3.524278 2.012109 -2.388539 -2.465436 2.264632 0.785654 1.523826 -2.759244 -3.103590 -4.962193 -0.238585 -0.265168 -61.413302 -6.919055 -5.868346 -2.209275 -60.871431 3.341022 -3.475263 -2.214809 3.131124 -1.619771 0.721950 -3.053052 123.574508 12.396796 55.788026 57.395774 79.937017 -179.481374 4.753198 -1.197969 -1.193748 -1.479114 -0.289290 4.704356
-2.691251 14.536220 5.611611 170.386566 -35.262676 178.753448 -42.308297 -18.080908 -43.807755 -10.296665 -4.768634 27.812720 -14.171685 0.909473 -13.541788 -1.866086 2.107306 -2.019624 -13.264087 -15.894125 20.582589 81.219602 -8.292784 -24.170005 37.300510 5.251387 -95.311295 -2.193797 -0.065050 3.928171 -2.749903 6.915130 -0.782248 -3.108719 -5.424772 1.593104 -4.087075 3.407419 -0.582826 -1.382457 2.153169 0.264245 -59.541487 2.873509 -7.619364 -8.015696 -62.739371 3.808900 -3.411372 -0.064266 -1.234339 0.721648 0.398418 -2.175695 119.960489 12.870704 52.210985 60.899103 84.663298 177.774412 1.669543 0.119762 -3.145763 -2.051104 0.945115 -4.684033
-2.764054 14.545231 5.564871 170.413406 -32.941769 178.892181 -40.853360 -15.428915 -51.344064 -6.448623 0.345051 27.621560 -13.536305 0.649310 -13.214006 -3.088345 0.308380 3.526078 -14.209199 -8.048367 22.837725 75.440046 -10.789029 -21.217565 37.869977 0.751185 -97.817582 -4.510763 -2.632760 4.737442 -3.045062 5.662646 -3.121730 0.502695 0.442497 -7.388956 1.448741 0.394663 -4.426924 2.330842 -1.824254 -0.880145 -58.002344 -0.859397 -1.513667 -0.152924 -70.843898 4.820165 -2.544172 0.242884 -3.568679 0.835871 2.396136 2.693451 124.037110 16.884116 53.328079 63.687809 79.338717 177.735167 0.905139 1.225234 4.909020 -4.355194 -3.765496 3.537144
-2.836857 14.554243 5.518131 170.454636 -30.603720 179.049667 -44.205124 -11.075819 -45.731791 -7.607683 -2.135120 32.379055 -9.058890 3.287269 -9.893502 0.608366 1.073462 -4.072856 -11.449088 -15.249262 20.725213 73.851910 -12.824512 -25.319746 35.532348 3.964863 -91.115802 -0.841382 0.170736 0.666561 -3.192320 2.428936 2.315875 3.110345 -6.753135 2.253733 3.846882 -1.988555 -2.200999 1.839492 3.948107 -0.647194 -57.693298 1.782751 -4.352503 -6.735787 -64.584607 -2.116066 -4.885415 4.419996 3.515477 1.911843 0.097955 -2.158517 118.398547 15.067224 53.202159 64.756332 86.150483 -178.421244 -0.184193 -0.907412 -2.862174 -4.093190 4.386353 0.464250
-2.906213 14.562422 5.467940 170.488632 -28.315804 179.197021 -35.705713 -11.457521 -46.518114 -6.227987 4.287870 31.166012 -10.897102 -5.174771 -6.283924 -2.111822 -1.779400 -3.149462 -17.133712 -12.755812 21.962786 77.663810 -10.273382 -24.626000 35.919590 0.121014 -93.672438 -1.420971 2.866546 -2.664036 4.280040 2.657524 2.081796 -3.231638 -4.320907 -1.049080 -1.852080 -0.992637 -4.023677 1.852556 3.421291 4.176366 -57.582080 0.004389 -3.281195 -8.549540 -68.884901 -2.435546 -4.642502 4.227436 1.720489 -1.856290 -1.632222 -1.808904 122.492817 21.266846 55.428525 56.630240 77.853476 -175.707836 -2.469829 0.759415 -3.076312 1.346379 -1.127692 -2.341773
-2.971644 14.569655 5.413820 170.512299 -26.077612 179.326004 -43.584705 -10.979305 -46.964306 -6.342295 3.295412 32.550392 -8.007492 -0.290072 -2.767454 3.671626 -3.936991 0.563547 -11.523480 -13.362982 17.491800 77.368288 -10.816539 -19.493839 31.153361 0.731720 -96.292698 4.114433 -4.886940 -0.504920 0.791192 10.811159 -2.149807 4.242220 -0.102034 -7.503685 -1.446017 -0.839460 -1.005602 -3.434370 -0.336403 0.253205 -54.457434 -1.002592 0.547095 -10.469969 -67.233208 4.750557 -4.079403 -3.477273 3.962580 0.830781 4.381235 -1.724054 119.608923 21.962133 51.174361 58.409635 77.982420 -177.685147 0.981246 2.132163 1.136773 -3.386431 4.556573 -1.200536
-3.037075 14.576888 5.359700 170.548111 -23.823706 179.467407 -35.458821 -6.154022 -52.483179 -2.566568 -2.816488 30.555153 -5.126494 -8.336196 -6.133058 2.379293 -2.618395 2.058309 -17.911209 -17.747233 22.656770 79.624556 -14.281153 -26.240636 37.921817 -0.772287 -88.616253 -1.570877 -1.580891 -2.054617 -2.190850 6.775337 2.679015 -5.292588 -4.656247 0.119086 -4.709569 1.037024 2.365801 -3.654892 1.857688 -3.872097 -53.206720 -4.845005 -1.582686 -10.687068 -68.026928 -3.001286 1.731974 0.963492 -0.783074 4.143618 1.835735 -3.062482 122.388093 15.788126 46.087898 63.700437 76.315732 -176.798564 3.893352 -4.153940 -0.082322 4.683156 -4.914466 -1.126036
-3.102506 14.584121 5.305580 170.595444 -21.561075 179.621628 -40.380506 -10.262806 -48.706105 -6.623702 1.563616 28.982170 -8.111011 -7.135300 -3.860391 -3.928914 -0.293105 4.263487 -10.964426 -17.656784 23.598211 79.642773 -9.940008 -20.595893 36.402928 -4.013316 -94.812846 4.727457 1.914081 -1.486622 6.040163 10.813222 -3.515589 -2.547730 1.495428 -6.362529 4.667177 -3.247390 3.429882 -4.624283 0.192659 -0.840383 -55.159546 -0.483092 -2.349090 -5.498388 -70.315527 -0.208635 2.408823 -4.301271 -1.912044 1.177548 0.586674 4.544618 114.355167 20.331574 46.884160 64.671336 78.467396 -177.232129 1.022193 0.969737 3.562030 3.675681 -4.705185 3.254637
-3.164959 14.590025 5.247998 170.648514 -19.354546 179.764572 -41.883016 -7.342991 -54.484314 -5.327580 3.760896 28.786894 -4.806427 -5.231497 -3.369193 0.977613 -0.696588 -4.692775 -15.411158 -9.499465 20.505787 74.204613 -16.088318 -19.166253 29.973577 0.877233 -93.115631 4.157815 0.285504 2.688801 3.551602 7.943755 -4.021392 -4.400329 -2.585283 -1.879474 4.205294 -4.565154 -2.031049 0.844063 -2.130163 -1.243459 -53.305801 -3.155306 -5.721496 -12.420971 -76.843904 -0.999771 2.963123 -1.776705 1.990410 -2.904999 -0.935540 -4.629484 114.097226 18.240712 54.683484 67.855494 83.012619 -177.602757 4.913604 -4.862466 3.293875 0.157566 -3.254185 -1.055318
-3.223714 14.594278 5.186116 170.707199 -17.209396 179.888474 -32.223938 -5.194136 -48.036744 -6.512734 -0.262558 29.053966 1.501146 -5.733493 -0.111048 -3.393642 1.882220 -3.489591 -9.509713 -9.975582 21.573950 73.452010 -12.120171 -25.553772 30.158862 3.609964 -93.937227 -1.528805 -4.598159 -0.896591 1.092638 1.019742 2.531672 2.220484 1.332173 1.228248 1.028001 -0.644615 4.481423 -1.014065 -0.942712 -0.670437 -57.925497 2.078283 -7.332842 -10.998485 -77.916109 -3.505989 2.903232 3.547493 0.148443 3.658452 4.764548 -4.774245 119.465325 17.119596 54.045684 61.420797 81.091037 -177.714642 -0.547270 4.612008 -0.687716 4.576678 -3.282433 3.615260
-3.282469 14.598531 5.124234 170.778320 -15.053505 180.023529 -38.417490 -3.190434 -49.290847 1.287805 0.455342 35.430233 -2.816435 -7.007216 -8.527349 4.205585 0.715782 -4.180537 -9.287092 -11.238257 14.306680 78.592216 -9.992687 -18.738537 31.086253 -0.051048 -90.810398 -3.375230 -4.980519 -4.911487 -2.181209 8.951258 -3.869714 -5.132249 -0.715930 -5.088035 1.448068 4.917762 1.238007 -3.563449 2.524342 -1.602998 -57.363756 2.043194 -3.045658 -11.854989 -70.472339 3.407916 -4.626616 3.207782 2.089789 2.729924 -0.728624 0.940726 118.053497 22.806108 44.456762 64.104126 80.455931 175.090397 4.580679 2.470526 2.733942 4.830206 -3.950376 0.809693
-3.341224 14.602784 5.062352 170.861572 -12.892275 180.170563 -38.812610 -5.739325 -54.504637 -4.209042 -1.833275 28.317028 -0.228914 -3.740846 -1.105254 -3.921631 3.949704 2.785855 -16.985396 -15.425642 20.128866 76.793010 -14.681093 -24.532366 35.260466 -1.566539 -91.950823 0.405777 0.927022 1.530591 2.634600 9.943468 1.940070 -5.945887 3.617269 -6.251187 0.416162 4.720903 2.785675 1.785597 0.617340 2.302310 -57.553493 0.198856 -4.944336 -10.892264 -74.553614 -1.658154 -3.604142 -3.206117 2.976855 -3.531505 -0.949856 1.315342 116.022766 18.113982 47.103047 65.725064 82.148528 -179.829397 1.073572 -3.462201 0.042663 1.489825 -4.863730 -1.044898
-3.397201 14.605514 4.997565 170.957077 -10.781870 180.306503 -35.474264 -4.504028 -47.686095 -1.388601 5.981170 28.454564 3.626169 -10.224757 -4.218422 3.124245 -2.844124 -2.225010 -11.756962 -10.988478 16.439814 72.085238 -18.231539 -21.753635 31.707329 -3.107219 -90.751835 -2.046525 1.644334 1.959230 1.971775 9.243272 -5.200988 -4.193153 -5.192482 -2.137528 -4.998912 -0.832929 -2.399312 -1.789164 2.815932 -1.111229 -54.681081 -4.062174 -6.605211 -9.670536 -74.029662 3.372217 -2.640658 -0.851619 -0.024504 -3.735996 3.385463 -2.289278 115.343086 22.650090 50.613122 73.307579 78.399617 179.776889 0.892068 -4.310436 0.145963 4.609749 1.552141 2.617847
-3.449411 14.606178 4.928840 171.066360 -8.732179 180.422699 -34.452469 -7.614363 -50.080156 -4.395307 3.194633 28.674423 4.677995 -6.431401 -7.399905 3.214900 -1.970677 -4.367508 -11.633631 -16.457474 16.159503 71.225992 -16.266526 -24.177513 37.596897 1.861009 -86.147706 -4.496647 -0.743686 0.531003 -3.344374 5.259949 -3.011848 -4.769437 -1.819348 -2.739696 -0.803481 -3.432719 -1.477200 -2.922429 -1.437283 3.645590 -54.605934 -2.204414 -1.882778 -13.308245 -77.757973 0.596441 -0.716681 -1.941441 -0.892955 -4.847898 2.644565 -0.991777 118.905665 16.916340 49.082212 73.367593 77.618866 -179.745288 -2.828504 0.709328 -0.664391 3.730269 3.228794 2.746154
-3.501622 14.606843 4.860115 171.189468 -6.673385 180.551895 -28.891618 -2.482890 -51.376091 0.310022 -2.950322 32.278877 5.586733 -6.885719 -2.441120 -2.331457 -1.543287 -3.153763 -16.208746 -17.316977 16.329609 70.381399 -12.896667 -18.556485 33.515715 -7.657395 -82.908856 -4.831662 -3.615320 -3.938991 3.165720 6.527439 1.510963 0.510830 0.339449 -6.027620 3.064525 2.597642 0.468354 3.695712 -4.952098 -4.567712 -52.141330 -1.243423 -3.775546 -16.034120 -78.449742 0.159652 2.228795 1.536772 2.546708 -1.010268 4.280712 -3.966478 119.005266 20.163241 44.193411 68.075573 79.024237 -175.651384 2.272485 2.639800 2.502550 0.533132 1.408178 4.800131
-3.553832 14.607507 4.791389 171.326172 -4.609792 180.695053 -36.924658 -2.733030 -54.161055 -4.907989 1.001759 31.383581 2.405075 -8.216545 -1.598477 -1.488968 3.277306 -4.778515 -15.047609 -18.251640 17.572749 77.497001 -20.966445 -14.522872 30.615802 0.288612 -86.669558 2.204887 1.349424 4.882289 5.684029 8.781482 2.332994 -1.241493 2.285550 -2.557883 0.139513 1.305005 -2.363872 0.285510 -1.130780 1.248383 -49.567635 -3.565823 1.557668 -9.493495 -75.020075 4.766363 3.020941 -0.472794 0.643674 -0.072680 1.811978 3.975733 119.353839 21.517708 51.491819 72.901112 80.935883 179.594666 -4.422375 4.533740 -0.047402 -4.010399 -2.134720 0.562817
